<?xml version="1.0" encoding="UTF-8"?>
<svg width="125px" height="39px" viewBox="0 0 125 39" version="1.1" xmlns="http://www.w3.org/2000/svg" xmlns:xlink="http://www.w3.org/1999/xlink">
    <title>Group 4</title>
    <g id="页面-1" stroke="none" stroke-width="1" fill="none" fill-rule="evenodd">
        <g id="Group-4" fill-rule="nonzero">
            <g id="logo.8312a21f">
                <g id="Group" transform="translate(41.000000, 0.000000)">
                    <g id="Biu" fill="#2F54EB" font-family="Futura-MediumItalic, Futura" font-size="18" font-style="italic" font-weight="400">
                        <text>
                            <tspan x="0" y="19">Biu</tspan>
                        </text>
                    </g>
                    <g id="攻击面梳理平台" transform="translate(0.000000, 23.000000)" fill="#262626" font-family="FZLTXHK--GBK1-0, Lantinghei SC" font-size="12" font-weight="300">
                        <g id="编组">
                            <text id="攻击面梳理平台">
                                <tspan x="0" y="12">攻击面梳理平台</tspan>
                            </text>
                        </g>
                    </g>
                </g>
                <g id="find" fill="#2F54EB">
                    <path d="M37.3425,17.8425 C36.3675,17.8425 35.685,18.6225 35.685,19.5 C35.685,21.3525 35.3925,23.205 34.71,25.0575 C32.4675,31.395 26.325,35.685 19.5975,35.685 C10.725,35.685 3.51,28.47 3.51,19.5975 C3.51,10.725 10.725,3.51 19.5975,3.51 C20.5725,3.51 21.255,2.73 21.255,1.8525 C21.255,0.975 20.475,0 19.5,0 C8.775,0 0,8.775 0,19.5 C0,30.225 8.775,39 19.5,39 C27.5925,39 35.0025,33.8325 37.83,26.2275 C38.61,24.0825 39,21.84 39,19.5 C39,18.525 38.22,17.8425 37.3425,17.8425 Z" id="Shape"></path>
                    <path d="M14.2801731,24.6975203 C15.8659765,26.2992453 17.8482306,27 19.8304848,27 C21.812739,27 23.7949931,26.1991375 25.3807965,24.6975203 C27.8586142,22.1948251 31.2284463,11.3831814 31.9222352,9.1808096 C32.1204606,8.58016273 31.9222352,7.87940805 31.5257844,7.4789768 C31.1293335,7.07854556 30.4355446,6.87832994 29.8408683,7.07854556 C27.6603888,7.67919243 16.9562162,11.082858 14.4783985,13.6856611 C11.2076792,16.6888954 11.2076792,21.694286 14.2801731,24.6975203 Z M16.6588781,16.0882486 C17.7491179,14.9870626 22.9029788,12.9849064 27.4621633,11.3831814 C25.87636,15.8880329 23.8941058,21.0936391 22.803866,22.2949329 C21.11895,23.9967657 18.4429069,23.9967657 16.6588781,22.2949329 C15.0730748,20.5931001 15.0730748,17.7900814 16.6588781,16.0882486 Z" id="Shape"></path>
                </g>
            </g>
            <g id="2024(1)" transform="translate(68.000000, 0.000000)" fill="#D81E06">
                <path d="M38.7235479,1.29622849 C38.6634833,1.23220248 38.6354532,1.16817646 38.6394575,1.09134527 C38.6474661,0.883260741 38.607423,0.675176212 38.5193283,0.479896877 C38.4032035,0.223792836 38.1989839,0.0541239112 37.8345921,0.0125069975 C37.5022347,-0.0227072992 37.1858946,0.0221109037 36.8695545,0.0765329931 C35.8564653,0.243000629 34.895432,0.556728068 33.9143772,0.80963082 C33.0174128,1.04332576 32.1164441,1.2706181 31.1954538,1.44989093 C31.0553031,1.47550134 30.9912342,1.47230003 30.9111481,1.3506506 C30.5427521,0.777617812 29.5817188,0.287818831 28.5365951,0.630357989 C27.4714498,0.979299745 26.4223218,1.36345582 25.3611809,1.71880017 C23.8435492,2.22140435 22.3099002,2.69199553 20.7121824,3.01532688 C19.8632697,3.18819711 19.0063483,3.33545694 18.1334097,3.42189205 C17.6448845,3.46991156 17.1523549,3.48911936 16.6638297,3.52113236 C16.0231408,3.56274928 15.3904606,3.52113236 14.753776,3.48911936 C14.5775866,3.47951545 14.3693627,3.39628164 14.2171991,3.50832717 C13.9328934,3.7164117 13.6726136,3.94370404 13.3883079,4.17099638 C13.4403639,4.18700289 13.4804069,4.20621068 13.52045,4.21261328 C14.5455522,4.38548351 15.5866715,4.4271004 16.6277909,4.46871732 C17.3405573,4.49752902 18.0533236,4.44950951 18.76609,4.43350302 C19.1505033,4.42710042 19.5309123,4.37908091 19.9153256,4.3470679 C20.3237648,4.3150549 20.7322039,4.2798406 21.1446474,4.24462628 L21.1486517,4.24462628 C21.2407507,4.23822369 21.3288454,4.23502238 21.4209444,4.22221718 C21.3648842,4.23182109 21.3128282,4.24462628 21.2647765,4.27663929 C20.9924838,4.32786009 20.7241953,4.37908091 20.4519026,4.43030171 C19.34271,4.62878234 18.2215045,4.77284087 17.0842817,4.81765907 C16.3755197,4.84647077 15.658749,4.84647077 14.9459827,4.80165257 C14.321311,4.76323696 13.704648,4.69600966 13.0959936,4.58396413 C12.995886,4.56475632 12.9198042,4.57436023 12.8397181,4.63198364 C12.5954554,4.80485388 12.3431842,4.9681202 12.0989216,5.14099044 C12.0548742,5.16980214 11.9787924,5.19541255 11.9988139,5.24983466 C12.0148311,5.29785417 12.0949173,5.29785417 12.1509776,5.31065936 C12.7516234,5.45151659 13.3602778,5.5571595 13.9769408,5.64679592 C14.9700085,5.78765315 15.9750892,5.88689346 16.9841741,5.91250385 C18.0893624,5.93811426 19.1945507,5.93491295 20.2957346,5.82927004 C20.9764666,5.76524403 21.6531942,5.69161413 22.3219131,5.58276991 C22.6502662,5.5283478 22.9786192,5.47072438 23.3069723,5.41630227 C22.5982102,5.72362711 21.9695343,6.11738709 21.3288454,6.49834185 C20.1235495,7.21543318 18.9623009,7.96453749 17.9612246,8.86410295 C17.4526778,9.32188892 16.9721612,9.7956814 16.5276833,10.2950843 C15.7508481,11.1722406 15.1101592,12.113423 14.5535608,13.0866183 C14.1731518,13.7492875 13.7927427,14.4119567 13.5885232,15.1290481 C13.560493,15.2314897 13.4804069,15.2410936 13.3843036,15.2314897 C12.7476191,15.170665 12.1109345,15.1642624 11.4702456,15.1610611 C11.462237,15.1610611 11.4502241,15.1482559 11.4422155,15.1418533 C11.4462198,15.1002364 11.4902672,15.0906325 11.5223016,15.074626 C12.1029259,14.7384894 12.6194813,14.3543333 13.0719678,13.9061513 C14.2892766,12.699261 14.9459827,11.3195005 15.0581032,9.77647359 C15.1101592,9.07538877 15.002043,8.38710917 14.6656813,7.72764126 C14.3693627,7.14180326 13.9288891,6.64560168 13.2361443,6.33187422 C12.4392875,5.97012727 11.5623447,5.77804922 10.649363,5.73323102 C9.69633836,5.68521151 8.77935242,5.84207524 7.9224311,6.18141311 C6.87330309,6.59758217 6.03239896,7.20903058 5.42774884,8.012557 C5.03532691,8.53116768 4.76703846,9.08179137 4.81108583,9.70284369 C4.83911597,10.090201 5.04333554,10.4103311 5.41573595,10.6568312 C6.03640327,11.069799 6.78921269,11.1914484 7.5660479,11.2650783 C7.75425026,11.2842862 7.89440094,11.2650783 7.86236651,11.0665977 C7.85435791,11.0121756 7.88238804,10.9513509 7.89840525,10.8937275 C8.07859898,10.2246557 8.50305537,9.70924627 9.35997672,9.50756435 C10.0086742,9.35390193 10.5973071,9.58439556 10.8095353,10.1030062 C10.9176515,10.3655129 10.89763,10.6376234 10.8415697,10.9065327 C10.7374578,11.4059356 10.4611607,11.8605202 10.1808593,12.305501 C9.42804988,13.5187939 8.41496065,14.5688205 7.08553127,15.4171651 C6.7331524,15.6444575 6.37276491,15.8813537 5.95631716,16.0158083 C4.95123651,16.3391397 3.90611282,16.5728346 2.84897621,16.7745165 C1.95201181,16.9441855 1.05104311,17.1042505 0.138061488,17.2258999 C0.0539710845,17.2387051 -0.0221107375,17.2515103 0.00591939715,17.3571532 C0.202130364,18.0198225 0.466414522,18.6600826 0.974961286,19.2139075 C1.57560708,19.8701742 2.50060163,20.2287198 3.60178561,19.8381611 C4.12234529,19.6524857 4.66693082,19.5020246 5.19950345,19.3323557 C6.31270033,18.97381 7.42189291,18.6216669 8.54710271,18.2855304 C10.1328076,17.8117379 11.7305255,17.376361 13.3722907,17.0530297 C13.52045,17.024218 13.5685016,17.0466271 13.6165533,17.1554713 C13.9368977,17.9365886 14.6256383,18.451998 15.5346156,18.7785307 C16.5356919,19.1370763 17.5968328,19.2331154 18.6900082,19.1818945 C19.5429252,19.1434789 20.379825,19.0314334 21.2007077,18.8489593 C22.438038,18.5736474 23.6072952,18.1670823 24.7004705,17.6196599 C25.3932154,17.2707181 26.05793,16.8897634 26.6665845,16.4479839 C27.3272948,15.9677888 27.9599751,15.4651846 28.5205778,14.9081583 C29.0291246,14.3991516 29.4976283,13.8677357 29.8780374,13.2947029 C30.5187262,12.3279101 31.0472945,11.3323056 30.9151524,10.1990453 C30.8550879,9.68683718 30.6068209,9.25146031 30.0582311,8.96014195 C29.1332365,8.47034297 28.116143,8.39671307 27.0550021,8.59199241 C26.1420205,8.75846004 25.3171336,9.09139529 24.5443026,9.50756435 C24.3440874,9.61640857 24.1238506,9.70924629 23.9516654,9.88851912 C24.0077257,9.87891521 24.0317516,9.87251261 24.0557774,9.8693113 C24.7365093,9.73805798 25.4252498,9.63881767 26.1260032,9.7348567 C26.8948299,9.83729832 27.4113853,10.1990453 27.395368,10.8937275 C27.3833551,11.3451108 27.1551097,11.7452734 26.9028385,12.1294295 C26.3502443,12.9777741 25.6214608,13.733281 24.8045825,14.4343659 C24.0998247,15.0394117 23.3470153,15.6028406 22.5021069,16.0862369 C21.5610951,16.6272567 20.576036,17.1010492 19.4308047,17.3091337 C18.7180383,17.4403871 17.9932591,17.4788027 17.2804927,17.3155363 C16.8840665,17.2226986 16.5396962,17.0626336 16.3194594,16.7361009 C16.615778,16.7393023 16.8760579,16.7457048 17.1323334,16.7969256 C17.1803851,16.8065296 17.2444539,16.8385426 17.2804927,16.8033282 C17.3285444,16.7617113 17.2764884,16.7136918 17.2524626,16.6720749 C17.0602559,16.3135293 16.7158856,16.0670291 16.3074465,15.8717498 C16.1873173,15.8141264 16.1512786,15.7501004 16.183313,15.6508601 C16.2674034,15.3979573 16.3595025,15.1482559 16.4956489,14.9113596 C17.0722688,13.9189565 17.9251859,13.0802157 18.8501804,12.2894945 C19.6230113,11.6268253 20.4519025,11.0121756 21.3208368,10.4295389 C22.3379304,9.74766189 23.395067,9.11380438 24.4922467,8.52156379 C26.3502443,7.51955673 28.2883281,6.62959517 30.306498,5.84527655 C30.7549802,5.66920502 31.2034624,5.48673088 31.6719661,5.35547757 C32.7531286,5.05135401 33.8543126,4.80805517 34.9675095,4.59356804 C35.0435913,4.57756154 35.1356903,4.53274333 35.2037635,4.61277585 C35.2678324,4.68320446 35.275841,4.75363308 35.2357979,4.83686689 C35.1677247,4.9809254 35.0435913,5.08976962 34.9034406,5.18900995 C34.7392641,5.30105548 34.5670789,5.40349708 34.3828809,5.51874389 C34.595109,5.573166 34.7793071,5.5219452 34.9554966,5.5059387 C35.6482414,5.44191268 36.2008355,5.19541255 36.5011584,4.67360056 C36.5732359,4.54874984 36.6693393,4.50393163 36.8215029,4.48152253 C37.1418473,4.43670433 37.4541831,4.3534705 37.7424931,4.22861978 C37.9427083,4.14218466 38.0548289,4.02693785 38.0267988,3.83165851 C38.0067772,3.7100091 38.0227944,3.58835967 38.0227944,3.46350897 C38.0227944,3.17539192 37.9026653,3.07935289 37.5462821,3.07615159 C37.033731,3.07615159 36.5171756,3.07295028 36.0046246,3.07935289 C35.6642586,3.0825542 35.327897,3.0665477 34.987531,3.0953594 C34.7032253,3.12096981 34.4149153,3.1049633 34.1266053,3.1049633 L33.2656797,3.1049633 C33.4098347,3.0441386 33.5539897,3.00892428 33.6981447,2.97691127 C34.7352597,2.76562544 35.7923964,2.70159942 36.8575416,2.68879422 C37.0897913,2.68559292 37.3260453,2.67919032 37.5462821,2.62476821 C37.6744199,2.5927552 37.7745275,2.58955391 37.8666265,2.67919032 C37.9106739,2.72080723 37.9787471,2.76562544 38.0588332,2.73361243 C38.1429236,2.69839813 38.1589408,2.62476821 38.1309107,2.56714481 C38.082859,2.45509929 38.1629451,2.41348239 38.2630528,2.37186548 C38.3391346,2.33985247 38.4152164,2.30783946 38.4872939,2.26942386 C39.0999526,1.9428912 39.1439999,1.74441058 38.7235479,1.29622849 L38.7235479,1.29622849 Z M29.8219771,3.31304783 C29.6257661,3.46671025 29.269383,3.49552197 29.021116,3.38027514 C28.7688448,3.25862572 28.6367027,2.99932038 28.7167888,2.77202805 C28.7928706,2.55433962 29.0651634,2.39107329 29.361482,2.39107329 C29.5096413,2.39107329 29.5536886,2.44229409 29.493624,2.547937 C29.361482,2.78163194 29.4776068,3.04093729 29.7859383,3.1401776 C29.9501148,3.1913984 29.9220847,3.23621662 29.8219771,3.31304783 L29.8219771,3.31304783 Z" id="Shape"></path>
                <path d="M36.8867368,14.6082999 C37.1791572,14.6082999 37.4162548,14.5983436 37.6494008,14.6082999 C38.5977912,14.6580813 39.5501332,14.6979064 40.4590074,14.966726 C41.02409,15.1326641 41.5417531,15.3682961 41.881593,15.8096914 C41.944819,15.8893416 42.0317548,15.9889045 41.9882869,16.0619172 C41.9290125,16.1581613 41.7986089,16.065236 41.7037698,16.0552797 C41.0833644,15.995542 40.4708623,16.0254108 39.8623117,16.1083799 C38.3409355,16.314143 36.8748819,16.7024381 35.4285866,17.1305583 C33.962533,17.565316 32.5162377,18.0531738 31.0738939,18.5476693 C30.702441,18.6737822 30.330988,18.7965763 29.9516319,18.912733 C29.2087261,19.1384087 28.4025942,18.9160517 27.9086409,18.3651374 C27.4383973,17.8440919 27.1854932,17.2467149 27.00767,16.6161503 C26.9721053,16.4933561 27.0669444,16.4833998 27.1538801,16.4701248 C27.6517851,16.4037496 28.1457385,16.3207806 28.6396918,16.2278553 C29.8251798,16.0021795 31.0067162,15.7665475 32.1329298,15.3815712 C32.575512,15.232227 32.9430133,14.9733636 33.306563,14.7211377 C34.428825,13.9412289 35.2705215,12.9787882 35.9027818,11.8802782 C36.1280245,11.4886644 36.3453639,11.0904131 36.4164932,10.6523366 C36.4599611,10.4034296 36.4560095,10.1578412 36.3493156,9.91889045 C36.1398794,9.4542639 35.5273772,9.27173203 34.9385848,9.49408902 C34.2312437,9.76290867 33.9111619,10.2574041 33.836081,10.8780124 C33.8202745,11.0140816 33.7768066,11.0705005 33.6147899,11.0539067 C33.1445463,11.0041253 32.6743027,10.9477064 32.2435754,10.7784496 C31.7022025,10.5660488 31.2675236,10.2607228 31.1884911,9.72640231 C31.1292167,9.33146974 31.2201041,8.94649346 31.4137338,8.58142973 C31.8839774,7.68868301 32.6268832,7.00833697 33.634548,6.52379785 C34.5078575,6.10563396 35.4522963,5.93969591 36.440203,6.01934618 C37.2700446,6.08904015 38.0682732,6.27489077 38.7519046,6.70301096 C39.2419063,7.00833697 39.5580365,7.42318212 39.7635211,7.9010837 C40.0480382,8.56151716 40.1152159,9.23522565 40.0440866,9.93548426 C39.9294894,11.0140816 39.5145686,11.9997537 38.8269855,12.9090942 C38.3488387,13.53634 37.7481914,14.0739793 37.0289954,14.5120558 C36.9894791,14.5319684 36.9618177,14.5551997 36.8867368,14.6082999 L36.8867368,14.6082999 Z" id="Path"></path>
                <path d="M42.1967158,7.19125619 C42.8180505,6.6110624 43.4823706,6.14559618 44.39288,6.0308686 C44.9477828,5.96203205 45.4948699,5.99808929 45.9989717,6.24393411 C46.327224,6.40455274 46.4679036,6.65695343 46.4991657,6.96180102 C46.5616899,7.6042755 46.2959618,8.1844693 45.9950639,8.75482929 C45.4636078,9.76115414 44.7523945,10.6789748 44.0411811,11.6000735 C43.8379773,11.8655859 43.6113269,12.1179866 43.4472008,12.4064445 C43.2908902,12.6785128 43.4159387,12.8686328 43.7793609,12.8915783 C44.1701374,12.9178017 44.5570062,12.8751886 44.9399672,12.7965183 C45.0142147,12.7801286 45.0415691,12.7473493 45.061108,12.6883466 C45.4167146,11.6754659 45.8856465,10.7051983 46.4210103,9.75132034 C46.827418,9.02361964 47.2846265,8.32214241 47.7535584,7.62394308 C47.8121749,7.53871688 47.8707914,7.45349065 47.9684855,7.39120999 C48.1482427,7.27976033 48.3162766,7.31581756 48.3748931,7.49610378 C48.4647717,7.77144999 48.476495,8.05663 48.4452329,8.33853206 C48.4022475,8.72860586 48.3553543,9.11540172 48.3006456,9.50547551 C48.2224903,10.0561679 48.1326117,10.6035824 48.0505486,11.1542748 C48.0075632,11.4230652 47.9684855,11.6885776 47.9215923,11.9835914 C48.2146747,11.8852535 48.4843106,11.7967493 48.7539464,11.7049673 C49.4221743,11.4820679 50.1060332,11.3345611 50.8250621,11.2853921 C51.0126349,11.2722804 51.2002076,11.2591686 51.3877804,11.2624466 C51.4620279,11.2624466 51.5206444,11.242779 51.5909842,11.2132776 C52.177149,10.9674328 52.743775,10.6822528 53.3963718,10.5609693 C53.9864444,10.4527976 54.5804248,10.4527976 55.1783129,10.5118004 C55.2095751,10.5150783 55.2369294,10.531468 55.2994536,10.5511355 C55.0063712,10.6134162 54.7758131,10.7150321 54.5882403,10.8887624 C54.8578762,10.8461493 55.1236042,10.8297596 55.3971478,10.8330376 C55.9090651,10.8395934 56.4014435,10.9280976 56.8860065,11.0559369 C56.9289919,11.0657707 56.9915161,11.0657707 56.9993317,11.1083838 C57.0071472,11.1575528 56.9446229,11.1772204 56.9055453,11.2001659 C56.6163706,11.3640624 56.2920261,11.4624004 55.9715893,11.5607383 C55.5886283,11.6787438 55.2017595,11.7934714 54.7875364,11.8360845 C55.0141868,11.9180328 55.2486527,11.9704797 55.459672,12.0753735 C55.510473,12.1015969 55.5651817,12.1212645 55.6159827,12.14421 C55.6472448,12.1605997 55.694138,12.1704335 55.6824147,12.2130466 C55.6745992,12.2458259 55.6316137,12.23927 55.6003516,12.2458259 C55.3033614,12.3146624 55.0024635,12.3572755 54.7015655,12.3703873 C53.7871484,12.4130004 52.8961778,12.3277741 52.0911781,11.9147548 C52.0091151,11.8721417 51.9504986,11.908199 51.8918821,11.9311445 C51.1650377,12.1966569 50.4460088,12.4818369 49.7543344,12.80963 C49.1251841,13.1046438 48.5116649,13.4258811 47.8981457,13.7438404 C47.7144807,13.8389004 47.6675875,13.9601838 47.6519565,14.1175245 C47.6089711,14.6583831 47.6050633,15.1959638 47.6089711,15.7368225 C47.6089711,15.9728335 47.6324177,16.2022887 47.6793109,16.4350218 C47.7027575,16.5563052 47.6167866,16.6316976 47.5190925,16.6972562 C47.2142867,16.900488 46.8469568,16.9857142 46.4679035,16.9988259 C45.4753311,17.0250494 44.9008895,16.61203 44.7211323,15.75649 C44.6547003,15.4483645 44.6234382,15.140239 44.642977,14.8288355 C44.6507926,14.7042742 44.5999916,14.6682169 44.4554043,14.6714949 C43.8379773,14.6878845 43.2205504,14.6846066 42.6148467,14.5731569 C41.9739732,14.4551514 41.4307938,14.2125845 41.1377113,13.6815597 C40.9462308,13.3373769 40.9892163,12.9800824 41.059556,12.6227879 C41.2666676,11.5935176 41.7355995,10.6363617 42.2045313,9.67920586 C42.5288759,9.01378586 42.9001136,8.3647555 43.243997,7.70589136 C43.392492,7.42726722 43.2244581,7.22075756 42.8375894,7.20436791 C42.62657,7.18797825 42.4311817,7.19453411 42.1967158,7.19125619 L42.1967158,7.19125619 Z" id="Path"></path>
                <path d="M20.7844601,4.0097422 C20.9216219,3.93825988 21.0705403,3.94779085 21.2155399,3.94779085 C21.1097294,3.98591476 21.0039189,4.01927317 20.8981084,4.05263158 C20.870676,4.0049767 20.8236492,4.01927317 20.7844601,4.0097422 Z" id="Path"></path>
            </g>
        </g>
    </g>
</svg>
